<svg width="77" height="67" viewBox="0 0 77 67" fill="none" xmlns="http://www.w3.org/2000/svg">
<path d="M22.127 31.16C21.1403 31.16 20.1537 31.12 19.167 31.04C18.1803 30.96 17.1803 30.8667 16.167 30.76C15.767 30.7067 15.4737 30.5333 15.287 30.24C15.127 29.9467 15.0603 29.68 15.087 29.44C15.087 29.1467 15.207 28.88 15.447 28.64C15.7137 28.4267 16.0337 28.3467 16.407 28.4C17.3403 28.5067 18.287 28.6 19.247 28.68C20.2337 28.76 21.1937 28.8 22.127 28.8C23.327 28.8 24.5803 28.7067 25.887 28.52C27.1937 28.3333 28.3937 28.0533 29.487 27.68C30.607 27.28 31.5137 26.76 32.207 26.12C32.9003 25.48 33.247 24.72 33.247 23.84C33.247 22.5333 32.527 21.52 31.087 20.8C29.647 20.08 27.607 19.72 24.967 19.72C24.567 19.7467 24.247 19.64 24.007 19.4C23.767 19.1333 23.647 18.8667 23.647 18.6C23.647 18.0667 23.7937 17.7333 24.087 17.6C24.3803 17.44 24.767 17.3467 25.247 17.32C26.9537 17.2133 28.527 16.8533 29.967 16.24C31.4337 15.6 32.607 14.7733 33.487 13.76C34.3937 12.72 34.847 11.5733 34.847 10.32C34.847 9.01333 34.4737 7.90667 33.727 7C33.007 6.06667 32.0337 5.30667 30.807 4.72C29.5803 4.13333 28.2203 3.70667 26.727 3.44C25.2337 3.17333 23.7403 3.04 22.247 3.04C20.9137 3.04 19.447 3.13333 17.847 3.32C16.2737 3.48 14.567 3.78667 12.727 4.24L13.647 29.68C13.647 30.0267 13.5403 30.32 13.327 30.56C13.1137 30.8 12.8203 30.92 12.447 30.92C11.647 30.92 11.247 30.5333 11.247 29.76L10.247 2C10.247 1.57333 10.3537 1.26667 10.567 1.08C10.807 0.893334 11.0737 0.786667 11.367 0.76C11.687 0.76 11.967 0.853333 12.207 1.04C12.4737 1.2 12.6203 1.45333 12.647 1.8C16.167 1 19.3137 0.6 22.087 0.6C23.9803 0.6 25.8203 0.800001 27.607 1.2C29.4203 1.57333 31.047 2.16 32.487 2.96C33.927 3.73333 35.0603 4.73333 35.887 5.96C36.7403 7.16 37.167 8.58667 37.167 10.24C37.167 11.8667 36.647 13.4 35.607 14.84C34.567 16.28 33.127 17.4267 31.287 18.28C32.5937 18.8667 33.647 19.64 34.447 20.6C35.247 21.56 35.647 22.64 35.647 23.84C35.647 25.1467 35.247 26.2667 34.447 27.2C33.6737 28.1067 32.6203 28.8533 31.287 29.44C29.9803 30.0267 28.527 30.4533 26.927 30.72C25.327 31.0133 23.727 31.16 22.127 31.16Z" fill="black"/>
<path d="M44.0858 31C43.7391 31 43.4457 30.8933 43.2057 30.68C42.9924 30.4933 42.8857 30.2133 42.8857 29.84L41.9658 2.6C41.9658 1.77333 42.3924 1.36 43.2458 1.36C43.8058 1.36 44.1658 1.64 44.3258 2.2C47.4458 0.946668 50.2458 0.240001 52.7257 0.0799999C53.0191 0.0533336 53.3124 0.0400009 53.6058 0.0400009C53.9258 0.0133346 54.2324 0 54.5258 0C57.4591 0 60.0724 0.586668 62.3658 1.76C64.6858 2.93333 66.4858 4.70667 67.7658 7.08C68.7524 9 69.2458 10.96 69.2458 12.96C69.2458 14.4 68.9791 15.8 68.4458 17.16C67.9391 18.52 67.1791 19.7733 66.1658 20.92C64.6991 22.6 62.8724 23.8 60.6858 24.52C58.4991 25.24 56.1791 25.6 53.7257 25.6C52.4724 25.6 51.2058 25.52 49.9258 25.36C48.6724 25.1733 47.4191 24.9333 46.1658 24.64C45.8458 24.5867 45.6058 24.4533 45.4458 24.24C45.3124 24 45.2458 23.7733 45.2458 23.56C45.2458 23.4533 45.2724 23.32 45.3258 23.16C45.4858 22.5733 45.8991 22.28 46.5658 22.28C46.6724 22.28 46.7658 22.2933 46.8458 22.32C46.9258 22.32 47.0191 22.3333 47.1258 22.36C48.2991 22.68 49.4991 22.9333 50.7257 23.12C51.9524 23.28 53.1391 23.36 54.2858 23.36C56.3124 23.36 58.2058 23.0667 59.9658 22.48C61.7258 21.8933 63.2191 20.92 64.4458 19.56C66.1524 17.6133 67.0058 15.4267 67.0058 13C67.0058 11.1867 66.5258 9.46667 65.5658 7.84C64.4191 5.94667 62.8858 4.54667 60.9658 3.64C59.0724 2.73333 56.9791 2.28 54.6858 2.28C54.2591 2.28 53.8058 2.30667 53.3258 2.36C52.8724 2.38667 52.4191 2.42667 51.9658 2.48C49.6991 2.77333 47.1924 3.53334 44.4458 4.76L45.2858 29.76C45.2858 30.1867 45.1524 30.4933 44.8857 30.68C44.6457 30.8933 44.3791 31 44.0858 31Z" fill="black"/>
<path d="M7.065 52.899C6.507 52.899 6.021 52.782 5.607 52.548C5.199 52.314 4.881 51.987 4.653 51.567C4.431 51.141 4.32 50.64 4.32 50.064C4.32 49.488 4.428 48.987 4.644 48.561C4.86 48.135 5.172 47.805 5.58 47.571C5.988 47.337 6.483 47.22 7.065 47.22C7.665 47.22 8.169 47.337 8.577 47.571C8.985 47.805 9.294 48.135 9.504 48.561C9.714 48.981 9.819 49.482 9.819 50.064C9.819 50.988 9.582 51.69 9.108 52.17C8.64 52.656 7.959 52.899 7.065 52.899ZM7.065 52.332C7.815 52.332 8.367 52.143 8.721 51.765C9.075 51.387 9.252 50.82 9.252 50.064C9.252 49.35 9.069 48.792 8.703 48.39C8.337 47.988 7.791 47.787 7.065 47.787C6.339 47.787 5.793 47.994 5.427 48.408C5.061 48.816 4.878 49.368 4.878 50.064C4.878 50.76 5.067 51.312 5.445 51.72C5.829 52.128 6.369 52.332 7.065 52.332Z" fill="black"/>
<path d="M16.191 52.908C15.663 52.908 15.195 52.785 14.787 52.539C14.385 52.293 14.07 51.954 13.842 51.522C13.614 51.084 13.5 50.589 13.5 50.037C13.5 49.461 13.602 48.933 13.806 48.453C14.016 47.973 14.301 47.55 14.661 47.184C15.021 46.818 15.429 46.521 15.885 46.293C16.341 46.059 16.815 45.9 17.307 45.816C17.391 45.798 17.463 45.813 17.523 45.861C17.583 45.909 17.622 45.975 17.64 46.059C17.652 46.137 17.64 46.209 17.604 46.275C17.568 46.335 17.502 46.371 17.406 46.383C16.986 46.455 16.575 46.596 16.173 46.806C15.777 47.01 15.423 47.265 15.111 47.571C14.805 47.871 14.568 48.198 14.4 48.552C14.67 48.402 14.955 48.288 15.255 48.21C15.561 48.126 15.864 48.084 16.164 48.084C16.656 48.084 17.094 48.186 17.478 48.39C17.868 48.588 18.174 48.861 18.396 49.209C18.618 49.557 18.729 49.959 18.729 50.415C18.729 50.895 18.618 51.324 18.396 51.702C18.18 52.08 17.88 52.374 17.496 52.584C17.112 52.8 16.677 52.908 16.191 52.908ZM16.092 52.305C16.482 52.329 16.833 52.266 17.145 52.116C17.457 51.972 17.703 51.756 17.883 51.468C18.063 51.174 18.153 50.826 18.153 50.424C18.153 50.052 18.06 49.734 17.874 49.47C17.694 49.206 17.451 49.005 17.145 48.867C16.845 48.723 16.512 48.651 16.146 48.651C15.78 48.651 15.423 48.72 15.075 48.858C14.727 48.996 14.409 49.188 14.121 49.434C14.109 49.53 14.097 49.626 14.085 49.722C14.079 49.812 14.076 49.905 14.076 50.001C14.076 50.415 14.151 50.793 14.301 51.135C14.457 51.471 14.685 51.744 14.985 51.954C15.285 52.158 15.654 52.275 16.092 52.305Z" fill="black"/>
<path d="M23.238 53.223C23.178 53.169 23.148 53.103 23.148 53.025C23.148 52.947 23.175 52.878 23.229 52.818C23.367 52.674 23.529 52.488 23.715 52.26C23.901 52.038 24.087 51.813 24.273 51.585C24.465 51.351 24.627 51.15 24.759 50.982C24.687 50.904 24.576 50.772 24.426 50.586C24.276 50.4 24.108 50.19 23.922 49.956C23.736 49.716 23.553 49.479 23.373 49.245C23.199 49.011 23.046 48.807 22.914 48.633C22.788 48.453 22.71 48.33 22.68 48.264C22.656 48.222 22.644 48.177 22.644 48.129C22.644 48.027 22.692 47.943 22.788 47.877C22.83 47.853 22.875 47.841 22.923 47.841C23.019 47.841 23.103 47.886 23.175 47.976C23.223 48.06 23.304 48.186 23.418 48.354C23.538 48.522 23.676 48.711 23.832 48.921C23.994 49.125 24.156 49.332 24.318 49.542C24.486 49.752 24.642 49.944 24.786 50.118C24.93 50.292 25.041 50.424 25.119 50.514C25.323 50.238 25.5 49.998 25.65 49.794C25.8 49.59 25.935 49.401 26.055 49.227C26.175 49.047 26.292 48.861 26.406 48.669C26.52 48.471 26.643 48.246 26.775 47.994C26.805 47.934 26.844 47.892 26.892 47.868C26.94 47.844 26.988 47.832 27.036 47.832C27.084 47.832 27.126 47.841 27.162 47.859C27.27 47.919 27.324 48.003 27.324 48.111C27.324 48.153 27.315 48.198 27.297 48.246C27.171 48.498 26.997 48.795 26.775 49.137C26.559 49.479 26.313 49.842 26.037 50.226C25.767 50.604 25.488 50.979 25.2 51.351C24.912 51.723 24.633 52.071 24.363 52.395C24.093 52.719 23.853 52.992 23.643 53.214C23.577 53.274 23.505 53.304 23.427 53.304C23.355 53.304 23.292 53.277 23.238 53.223Z" fill="black"/>
<path d="M35.784 53.025C35.598 53.025 35.505 52.92 35.505 52.71C35.505 52.626 35.508 52.506 35.514 52.35C35.52 52.194 35.523 52.032 35.523 51.864C35.247 51.942 34.965 52.005 34.677 52.053C34.389 52.101 34.11 52.125 33.84 52.125C33.276 52.125 32.817 52.008 32.463 51.774C32.115 51.534 31.86 51.204 31.698 50.784C31.536 50.358 31.455 49.863 31.455 49.299C31.455 48.909 31.482 48.507 31.536 48.093C31.548 48.003 31.59 47.937 31.662 47.895C31.734 47.853 31.8 47.838 31.86 47.85C31.938 47.856 32.001 47.892 32.049 47.958C32.097 48.018 32.115 48.09 32.103 48.174C32.079 48.372 32.061 48.561 32.049 48.741C32.043 48.921 32.04 49.095 32.04 49.263C32.04 49.749 32.094 50.163 32.202 50.505C32.316 50.847 32.505 51.108 32.769 51.288C33.039 51.468 33.405 51.558 33.867 51.558C34.131 51.558 34.404 51.531 34.686 51.477C34.968 51.417 35.247 51.345 35.523 51.261C35.523 50.691 35.52 50.229 35.514 49.875C35.514 49.515 35.514 49.233 35.514 49.029C35.514 48.825 35.514 48.672 35.514 48.57C35.514 48.462 35.514 48.381 35.514 48.327C35.514 48.273 35.511 48.213 35.505 48.147C35.505 48.063 35.529 47.994 35.577 47.94C35.625 47.88 35.694 47.85 35.784 47.85C35.868 47.838 35.937 47.859 35.991 47.913C36.045 47.967 36.075 48.036 36.081 48.12V52.728C36.081 52.824 36.048 52.896 35.982 52.944C35.916 52.998 35.85 53.025 35.784 53.025Z" fill="black"/>
<path d="M43.047 52.908C42.483 52.908 41.988 52.788 41.562 52.548C41.142 52.308 40.815 51.975 40.581 51.549C40.347 51.117 40.23 50.616 40.23 50.046C40.23 49.506 40.344 49.023 40.572 48.597C40.806 48.171 41.13 47.838 41.544 47.598C41.964 47.352 42.456 47.229 43.02 47.229C43.524 47.229 43.977 47.352 44.379 47.598C44.781 47.844 45.102 48.18 45.342 48.606C45.582 49.026 45.711 49.506 45.729 50.046C45.729 50.202 45.645 50.301 45.477 50.343C45.345 50.361 45.15 50.376 44.892 50.388C44.634 50.4 44.337 50.412 44.001 50.424C43.665 50.43 43.311 50.436 42.939 50.442C42.567 50.442 42.198 50.442 41.832 50.442C41.466 50.442 41.127 50.442 40.815 50.442C40.857 50.832 40.977 51.171 41.175 51.459C41.379 51.747 41.64 51.966 41.958 52.116C42.282 52.272 42.642 52.35 43.038 52.35C43.392 52.35 43.74 52.29 44.082 52.17C44.43 52.05 44.724 51.885 44.964 51.675C45.024 51.633 45.09 51.612 45.162 51.612C45.246 51.612 45.315 51.642 45.369 51.702C45.405 51.756 45.423 51.816 45.423 51.882C45.423 51.972 45.393 52.041 45.333 52.089C45.003 52.365 44.64 52.569 44.244 52.701C43.848 52.839 43.449 52.908 43.047 52.908ZM40.797 49.875C41.187 49.875 41.598 49.875 42.03 49.875C42.462 49.869 42.882 49.863 43.29 49.857C43.698 49.845 44.064 49.836 44.388 49.83C44.718 49.818 44.97 49.809 45.144 49.803C45.096 49.383 44.97 49.023 44.766 48.723C44.562 48.423 44.301 48.192 43.983 48.03C43.665 47.868 43.305 47.787 42.903 47.787C42.513 47.793 42.165 47.886 41.859 48.066C41.553 48.246 41.307 48.492 41.121 48.804C40.935 49.11 40.827 49.467 40.797 49.875Z" fill="black"/>
<path d="M54.27 52.719C54.192 52.713 54.123 52.68 54.063 52.62C54.003 52.566 53.976 52.497 53.982 52.413C53.982 52.359 53.982 52.248 53.982 52.08C53.988 51.912 53.994 51.723 54 51.513C54.006 51.297 54.009 51.09 54.009 50.892C54.015 50.694 54.018 50.541 54.018 50.433H50.157C50.157 50.667 50.157 50.88 50.157 51.072C50.163 51.264 50.169 51.465 50.175 51.675C50.181 51.879 50.187 52.125 50.193 52.413C50.205 52.491 50.181 52.56 50.121 52.62C50.067 52.68 49.998 52.71 49.914 52.71C49.818 52.722 49.746 52.695 49.698 52.629C49.656 52.569 49.629 52.506 49.617 52.44C49.611 52.32 49.605 52.128 49.599 51.864C49.599 51.6 49.596 51.297 49.59 50.955C49.59 50.607 49.59 50.259 49.59 49.911C49.59 49.605 49.59 49.314 49.59 49.038C49.596 48.756 49.599 48.51 49.599 48.3C49.605 48.09 49.611 47.94 49.617 47.85C49.635 47.67 49.725 47.58 49.887 47.58C50.007 47.58 50.088 47.613 50.13 47.679C50.178 47.739 50.196 47.808 50.184 47.886C50.184 47.94 50.181 48.054 50.175 48.228C50.175 48.396 50.172 48.588 50.166 48.804C50.16 49.02 50.154 49.224 50.148 49.416C50.148 49.608 50.148 49.755 50.148 49.857H54.018C54.018 49.755 54.015 49.605 54.009 49.407C54.009 49.209 54.006 49.005 54 48.795C53.994 48.579 53.988 48.387 53.982 48.219C53.982 48.045 53.982 47.934 53.982 47.886C53.976 47.784 54.006 47.709 54.072 47.661C54.138 47.607 54.207 47.58 54.279 47.58C54.351 47.58 54.414 47.604 54.468 47.652C54.522 47.7 54.549 47.766 54.549 47.85C54.567 47.976 54.579 48.159 54.585 48.399C54.597 48.639 54.603 48.912 54.603 49.218C54.609 49.518 54.612 49.827 54.612 50.145C54.612 50.463 54.609 50.775 54.603 51.081C54.603 51.381 54.597 51.651 54.585 51.891C54.579 52.125 54.567 52.308 54.549 52.44C54.549 52.512 54.522 52.575 54.468 52.629C54.414 52.689 54.348 52.719 54.27 52.719Z" fill="black"/>
<path d="M59.031 52.764C58.917 52.746 58.851 52.671 58.833 52.539C58.809 52.383 58.788 52.176 58.77 51.918C58.752 51.66 58.737 51.372 58.725 51.054C58.719 50.736 58.713 50.412 58.707 50.082C58.701 49.746 58.698 49.425 58.698 49.119C58.698 48.807 58.698 48.534 58.698 48.3C58.71 48.198 58.746 48.123 58.806 48.075C58.872 48.027 58.938 48.009 59.004 48.021C59.076 48.021 59.136 48.051 59.184 48.111C59.238 48.171 59.265 48.243 59.265 48.327C59.259 48.441 59.253 48.558 59.247 48.678C59.247 48.792 59.247 48.912 59.247 49.038C59.247 49.44 59.259 49.869 59.283 50.325C59.307 50.781 59.331 51.27 59.355 51.792C59.943 51.114 60.528 50.472 61.11 49.866C61.692 49.26 62.283 48.693 62.883 48.165C62.949 48.111 63.015 48.084 63.081 48.084C63.147 48.084 63.207 48.108 63.261 48.156C63.321 48.204 63.357 48.261 63.369 48.327C63.399 48.549 63.423 48.771 63.441 48.993C63.465 49.215 63.48 49.473 63.486 49.767C63.498 50.061 63.504 50.421 63.504 50.847C63.51 51.273 63.513 51.801 63.513 52.431C63.513 52.527 63.48 52.596 63.414 52.638C63.348 52.686 63.282 52.71 63.216 52.71C63.12 52.71 63.048 52.677 63 52.611C62.958 52.551 62.937 52.488 62.937 52.422C62.943 52.326 62.946 52.221 62.946 52.107C62.946 51.993 62.946 51.87 62.946 51.738C62.946 51.45 62.943 51.144 62.937 50.82C62.931 50.49 62.922 50.169 62.91 49.857C62.898 49.545 62.883 49.275 62.865 49.047C62.517 49.335 62.202 49.608 61.92 49.866C61.644 50.124 61.374 50.391 61.11 50.667C60.852 50.943 60.579 51.246 60.291 51.576C60.009 51.9 59.688 52.272 59.328 52.692C59.268 52.752 59.214 52.782 59.166 52.782C59.148 52.782 59.127 52.779 59.103 52.773C59.085 52.773 59.061 52.77 59.031 52.764Z" fill="black"/>
<path d="M70.047 52.908C69.483 52.908 68.988 52.788 68.562 52.548C68.142 52.308 67.815 51.975 67.581 51.549C67.347 51.117 67.23 50.616 67.23 50.046C67.23 49.506 67.344 49.023 67.572 48.597C67.806 48.171 68.13 47.838 68.544 47.598C68.964 47.352 69.456 47.229 70.02 47.229C70.524 47.229 70.977 47.352 71.379 47.598C71.781 47.844 72.102 48.18 72.342 48.606C72.582 49.026 72.711 49.506 72.729 50.046C72.729 50.202 72.645 50.301 72.477 50.343C72.345 50.361 72.15 50.376 71.892 50.388C71.634 50.4 71.337 50.412 71.001 50.424C70.665 50.43 70.311 50.436 69.939 50.442C69.567 50.442 69.198 50.442 68.832 50.442C68.466 50.442 68.127 50.442 67.815 50.442C67.857 50.832 67.977 51.171 68.175 51.459C68.379 51.747 68.64 51.966 68.958 52.116C69.282 52.272 69.642 52.35 70.038 52.35C70.392 52.35 70.74 52.29 71.082 52.17C71.43 52.05 71.724 51.885 71.964 51.675C72.024 51.633 72.09 51.612 72.162 51.612C72.246 51.612 72.315 51.642 72.369 51.702C72.405 51.756 72.423 51.816 72.423 51.882C72.423 51.972 72.393 52.041 72.333 52.089C72.003 52.365 71.64 52.569 71.244 52.701C70.848 52.839 70.449 52.908 70.047 52.908ZM67.797 49.875C68.187 49.875 68.598 49.875 69.03 49.875C69.462 49.869 69.882 49.863 70.29 49.857C70.698 49.845 71.064 49.836 71.388 49.83C71.718 49.818 71.97 49.809 72.144 49.803C72.096 49.383 71.97 49.023 71.766 48.723C71.562 48.423 71.301 48.192 70.983 48.03C70.665 47.868 70.305 47.787 69.903 47.787C69.513 47.793 69.165 47.886 68.859 48.066C68.553 48.246 68.307 48.492 68.121 48.804C67.935 49.11 67.827 49.467 67.797 49.875Z" fill="black"/>
<path d="M2.691 65.908C2.163 65.908 1.695 65.785 1.287 65.539C0.885 65.293 0.57 64.954 0.342 64.522C0.114 64.084 0 63.589 0 63.037C0 62.461 0.102 61.933 0.306 61.453C0.516 60.973 0.801 60.55 1.161 60.184C1.521 59.818 1.929 59.521 2.385 59.293C2.841 59.059 3.315 58.9 3.807 58.816C3.891 58.798 3.963 58.813 4.023 58.861C4.083 58.909 4.122 58.975 4.14 59.059C4.152 59.137 4.14 59.209 4.104 59.275C4.068 59.335 4.002 59.371 3.906 59.383C3.486 59.455 3.075 59.596 2.673 59.806C2.277 60.01 1.923 60.265 1.611 60.571C1.305 60.871 1.068 61.198 0.9 61.552C1.17 61.402 1.455 61.288 1.755 61.21C2.061 61.126 2.364 61.084 2.664 61.084C3.156 61.084 3.594 61.186 3.978 61.39C4.368 61.588 4.674 61.861 4.896 62.209C5.118 62.557 5.229 62.959 5.229 63.415C5.229 63.895 5.118 64.324 4.896 64.702C4.68 65.08 4.38 65.374 3.996 65.584C3.612 65.8 3.177 65.908 2.691 65.908ZM2.592 65.305C2.982 65.329 3.333 65.266 3.645 65.116C3.957 64.972 4.203 64.756 4.383 64.468C4.563 64.174 4.653 63.826 4.653 63.424C4.653 63.052 4.56 62.734 4.374 62.47C4.194 62.206 3.951 62.005 3.645 61.867C3.345 61.723 3.012 61.651 2.646 61.651C2.28 61.651 1.923 61.72 1.575 61.858C1.227 61.996 0.909 62.188 0.621 62.434C0.609 62.53 0.597 62.626 0.585 62.722C0.579 62.812 0.576 62.905 0.576 63.001C0.576 63.415 0.651 63.793 0.801 64.135C0.957 64.471 1.185 64.744 1.485 64.954C1.785 65.158 2.154 65.275 2.592 65.305Z" fill="black"/>
<path d="M13.752 65.683C13.674 65.689 13.608 65.665 13.554 65.611C13.5 65.557 13.473 65.482 13.473 65.386C13.479 65.122 13.482 64.81 13.482 64.45C13.482 64.084 13.482 63.715 13.482 63.343C13.482 62.965 13.482 62.632 13.482 62.344V61.588C13.422 61.582 13.284 61.579 13.068 61.579C12.858 61.573 12.606 61.57 12.312 61.57C12.024 61.564 11.736 61.561 11.448 61.561C11.142 61.561 10.863 61.561 10.611 61.561C10.365 61.561 10.203 61.564 10.125 61.57C10.101 61.966 10.068 62.371 10.026 62.785C9.99 63.193 9.939 63.586 9.873 63.964C9.807 64.336 9.729 64.663 9.639 64.945C9.549 65.221 9.444 65.425 9.324 65.557C9.276 65.623 9.207 65.656 9.117 65.656C9.045 65.656 8.979 65.632 8.919 65.584C8.853 65.53 8.82 65.458 8.82 65.368C8.82 65.302 8.844 65.239 8.892 65.179C8.976 65.089 9.051 64.93 9.117 64.702C9.183 64.474 9.243 64.21 9.297 63.91C9.351 63.604 9.396 63.289 9.432 62.965C9.468 62.641 9.495 62.335 9.513 62.047C9.537 61.753 9.549 61.51 9.549 61.318C9.549 61.246 9.573 61.18 9.621 61.12C9.669 61.06 9.729 61.027 9.801 61.021C9.981 60.997 10.221 60.982 10.521 60.976C10.821 60.964 11.142 60.958 11.484 60.958C11.91 60.958 12.33 60.964 12.744 60.976C13.164 60.988 13.503 61.003 13.761 61.021C13.833 61.027 13.896 61.057 13.95 61.111C14.01 61.159 14.04 61.216 14.04 61.282C14.052 61.342 14.061 61.477 14.067 61.687C14.073 61.897 14.076 62.146 14.076 62.434C14.076 62.722 14.073 63.028 14.067 63.352C14.067 63.67 14.064 63.976 14.058 64.27C14.052 64.558 14.046 64.804 14.04 65.008C14.04 65.212 14.04 65.341 14.04 65.395C14.04 65.491 14.007 65.563 13.941 65.611C13.875 65.659 13.812 65.683 13.752 65.683Z" fill="black"/>
<path d="M20.565 65.899C20.007 65.899 19.521 65.782 19.107 65.548C18.699 65.314 18.381 64.987 18.153 64.567C17.931 64.141 17.82 63.64 17.82 63.064C17.82 62.488 17.928 61.987 18.144 61.561C18.36 61.135 18.672 60.805 19.08 60.571C19.488 60.337 19.983 60.22 20.565 60.22C21.165 60.22 21.669 60.337 22.077 60.571C22.485 60.805 22.794 61.135 23.004 61.561C23.214 61.981 23.319 62.482 23.319 63.064C23.319 63.988 23.082 64.69 22.608 65.17C22.14 65.656 21.459 65.899 20.565 65.899ZM20.565 65.332C21.315 65.332 21.867 65.143 22.221 64.765C22.575 64.387 22.752 63.82 22.752 63.064C22.752 62.35 22.569 61.792 22.203 61.39C21.837 60.988 21.291 60.787 20.565 60.787C19.839 60.787 19.293 60.994 18.927 61.408C18.561 61.816 18.378 62.368 18.378 63.064C18.378 63.76 18.567 64.312 18.945 64.72C19.329 65.128 19.869 65.332 20.565 65.332Z" fill="black"/>
<path d="M27.738 65.719C27.648 65.719 27.582 65.689 27.54 65.629C27.498 65.575 27.471 65.518 27.459 65.458C27.447 65.362 27.438 65.215 27.432 65.017C27.426 64.819 27.42 64.543 27.414 64.189C27.408 63.835 27.405 63.379 27.405 62.821C27.405 62.257 27.405 61.564 27.405 60.742C27.405 60.646 27.438 60.577 27.504 60.535C27.57 60.487 27.636 60.463 27.702 60.463C27.804 60.469 27.876 60.505 27.918 60.571C27.96 60.631 27.981 60.694 27.981 60.76C27.981 60.814 27.978 60.925 27.972 61.093C27.972 61.261 27.972 61.465 27.972 61.705C27.972 61.939 27.969 62.188 27.963 62.452C27.963 62.716 27.963 62.971 27.963 63.217C28.395 63.211 28.812 63.154 29.214 63.046C29.622 62.938 29.985 62.785 30.303 62.587C30.621 62.383 30.867 62.14 31.041 61.858C31.215 61.57 31.29 61.249 31.266 60.895C31.266 60.715 31.359 60.616 31.545 60.598C31.725 60.598 31.824 60.691 31.842 60.877C31.854 61.399 31.725 61.852 31.455 62.236C31.185 62.62 30.834 62.938 30.402 63.19C30.792 63.598 31.125 63.976 31.401 64.324C31.683 64.666 31.863 64.951 31.941 65.179C31.959 65.215 31.968 65.254 31.968 65.296C31.968 65.368 31.941 65.431 31.887 65.485C31.833 65.545 31.758 65.575 31.662 65.575C31.542 65.575 31.458 65.515 31.41 65.395C31.332 65.215 31.2 65.008 31.014 64.774C30.834 64.534 30.639 64.297 30.429 64.063C30.219 63.823 30.027 63.619 29.853 63.451C29.757 63.493 29.628 63.535 29.466 63.577C29.304 63.619 29.127 63.658 28.935 63.694C28.749 63.724 28.569 63.748 28.395 63.766C28.227 63.784 28.086 63.793 27.972 63.793C27.984 64.225 27.99 64.567 27.99 64.819C27.996 65.065 28.008 65.26 28.026 65.404C28.038 65.494 28.017 65.569 27.963 65.629C27.915 65.689 27.84 65.719 27.738 65.719Z" fill="black"/>
<path d="M40.284 66.025C40.098 66.025 40.005 65.92 40.005 65.71C40.005 65.626 40.008 65.506 40.014 65.35C40.02 65.194 40.023 65.032 40.023 64.864C39.747 64.942 39.465 65.005 39.177 65.053C38.889 65.101 38.61 65.125 38.34 65.125C37.776 65.125 37.317 65.008 36.963 64.774C36.615 64.534 36.36 64.204 36.198 63.784C36.036 63.358 35.955 62.863 35.955 62.299C35.955 61.909 35.982 61.507 36.036 61.093C36.048 61.003 36.09 60.937 36.162 60.895C36.234 60.853 36.3 60.838 36.36 60.85C36.438 60.856 36.501 60.892 36.549 60.958C36.597 61.018 36.615 61.09 36.603 61.174C36.579 61.372 36.561 61.561 36.549 61.741C36.543 61.921 36.54 62.095 36.54 62.263C36.54 62.749 36.594 63.163 36.702 63.505C36.816 63.847 37.005 64.108 37.269 64.288C37.539 64.468 37.905 64.558 38.367 64.558C38.631 64.558 38.904 64.531 39.186 64.477C39.468 64.417 39.747 64.345 40.023 64.261C40.023 63.691 40.02 63.229 40.014 62.875C40.014 62.515 40.014 62.233 40.014 62.029C40.014 61.825 40.014 61.672 40.014 61.57C40.014 61.462 40.014 61.381 40.014 61.327C40.014 61.273 40.011 61.213 40.005 61.147C40.005 61.063 40.029 60.994 40.077 60.94C40.125 60.88 40.194 60.85 40.284 60.85C40.368 60.838 40.437 60.859 40.491 60.913C40.545 60.967 40.575 61.036 40.581 61.12V65.728C40.581 65.824 40.548 65.896 40.482 65.944C40.416 65.998 40.35 66.025 40.284 66.025Z" fill="black"/>
<path d="M47.547 65.908C46.983 65.908 46.488 65.788 46.062 65.548C45.642 65.308 45.315 64.975 45.081 64.549C44.847 64.117 44.73 63.616 44.73 63.046C44.73 62.506 44.844 62.023 45.072 61.597C45.306 61.171 45.63 60.838 46.044 60.598C46.464 60.352 46.956 60.229 47.52 60.229C48.024 60.229 48.477 60.352 48.879 60.598C49.281 60.844 49.602 61.18 49.842 61.606C50.082 62.026 50.211 62.506 50.229 63.046C50.229 63.202 50.145 63.301 49.977 63.343C49.845 63.361 49.65 63.376 49.392 63.388C49.134 63.4 48.837 63.412 48.501 63.424C48.165 63.43 47.811 63.436 47.439 63.442C47.067 63.442 46.698 63.442 46.332 63.442C45.966 63.442 45.627 63.442 45.315 63.442C45.357 63.832 45.477 64.171 45.675 64.459C45.879 64.747 46.14 64.966 46.458 65.116C46.782 65.272 47.142 65.35 47.538 65.35C47.892 65.35 48.24 65.29 48.582 65.17C48.93 65.05 49.224 64.885 49.464 64.675C49.524 64.633 49.59 64.612 49.662 64.612C49.746 64.612 49.815 64.642 49.869 64.702C49.905 64.756 49.923 64.816 49.923 64.882C49.923 64.972 49.893 65.041 49.833 65.089C49.503 65.365 49.14 65.569 48.744 65.701C48.348 65.839 47.949 65.908 47.547 65.908ZM45.297 62.875C45.687 62.875 46.098 62.875 46.53 62.875C46.962 62.869 47.382 62.863 47.79 62.857C48.198 62.845 48.564 62.836 48.888 62.83C49.218 62.818 49.47 62.809 49.644 62.803C49.596 62.383 49.47 62.023 49.266 61.723C49.062 61.423 48.801 61.192 48.483 61.03C48.165 60.868 47.805 60.787 47.403 60.787C47.013 60.793 46.665 60.886 46.359 61.066C46.053 61.246 45.807 61.492 45.621 61.804C45.435 62.11 45.327 62.467 45.297 62.875Z" fill="black"/>
<path d="M56.646 61.147C56.376 61.147 56.136 61.075 55.926 60.931C55.722 60.787 55.587 60.604 55.521 60.382C55.515 60.364 55.509 60.346 55.503 60.328C55.503 60.31 55.503 60.292 55.503 60.274C55.503 60.196 55.53 60.133 55.584 60.085C55.644 60.037 55.719 60.013 55.809 60.013C55.875 60.013 55.932 60.037 55.98 60.085C56.034 60.127 56.064 60.175 56.07 60.229C56.106 60.355 56.184 60.445 56.304 60.499C56.43 60.547 56.55 60.571 56.664 60.571C56.796 60.571 56.919 60.544 57.033 60.49C57.153 60.436 57.231 60.346 57.267 60.22C57.315 60.082 57.402 60.013 57.528 60.013C57.546 60.013 57.561 60.016 57.573 60.022C57.591 60.022 57.609 60.025 57.627 60.031C57.699 60.055 57.75 60.094 57.78 60.148C57.81 60.202 57.825 60.256 57.825 60.31C57.825 60.346 57.822 60.373 57.816 60.391C57.75 60.619 57.609 60.802 57.393 60.94C57.183 61.078 56.934 61.147 56.646 61.147ZM54.675 65.773C54.597 65.773 54.528 65.749 54.468 65.701C54.408 65.659 54.375 65.602 54.369 65.53C54.351 65.41 54.333 65.233 54.315 64.999C54.297 64.759 54.282 64.489 54.27 64.189C54.258 63.889 54.249 63.583 54.243 63.271C54.237 62.959 54.234 62.674 54.234 62.416C54.234 62.248 54.234 62.098 54.234 61.966C54.24 61.834 54.246 61.726 54.252 61.642C54.264 61.552 54.297 61.486 54.351 61.444C54.405 61.396 54.462 61.372 54.522 61.372C54.612 61.372 54.684 61.399 54.738 61.453C54.798 61.507 54.828 61.579 54.828 61.669C54.822 61.723 54.819 61.792 54.819 61.876C54.819 61.96 54.819 62.056 54.819 62.164C54.819 62.362 54.819 62.584 54.819 62.83C54.825 63.076 54.831 63.325 54.837 63.577C54.843 63.823 54.849 64.054 54.855 64.27C54.867 64.48 54.876 64.648 54.882 64.774C55.116 64.54 55.353 64.312 55.593 64.09C55.833 63.862 56.094 63.625 56.376 63.379C56.658 63.133 56.979 62.86 57.339 62.56C57.705 62.254 58.131 61.906 58.617 61.516C58.647 61.492 58.68 61.474 58.716 61.462C58.752 61.444 58.791 61.435 58.833 61.435C58.887 61.435 58.941 61.456 58.995 61.498C59.055 61.54 59.091 61.597 59.103 61.669C59.127 61.819 59.148 61.993 59.166 62.191C59.184 62.383 59.196 62.62 59.202 62.902C59.214 63.184 59.22 63.532 59.22 63.946C59.226 64.354 59.229 64.846 59.229 65.422C59.223 65.518 59.187 65.587 59.121 65.629C59.061 65.677 58.998 65.701 58.932 65.701C58.746 65.701 58.653 65.602 58.653 65.404C58.659 65.176 58.662 64.963 58.662 64.765C58.668 64.561 58.671 64.366 58.671 64.18C58.671 63.856 58.665 63.544 58.653 63.244C58.647 62.944 58.629 62.632 58.599 62.308C58.185 62.656 57.807 62.971 57.465 63.253C57.123 63.535 56.805 63.805 56.511 64.063C56.223 64.315 55.944 64.573 55.674 64.837C55.41 65.095 55.14 65.377 54.864 65.683C54.81 65.743 54.747 65.773 54.675 65.773Z" fill="black"/>
<path d="M67.77 65.719C67.692 65.713 67.623 65.68 67.563 65.62C67.503 65.566 67.476 65.497 67.482 65.413C67.482 65.359 67.482 65.248 67.482 65.08C67.488 64.912 67.494 64.723 67.5 64.513C67.506 64.297 67.509 64.09 67.509 63.892C67.515 63.694 67.518 63.541 67.518 63.433H63.657C63.657 63.667 63.657 63.88 63.657 64.072C63.663 64.264 63.669 64.465 63.675 64.675C63.681 64.879 63.687 65.125 63.693 65.413C63.705 65.491 63.681 65.56 63.621 65.62C63.567 65.68 63.498 65.71 63.414 65.71C63.318 65.722 63.246 65.695 63.198 65.629C63.156 65.569 63.129 65.506 63.117 65.44C63.111 65.32 63.105 65.128 63.099 64.864C63.099 64.6 63.096 64.297 63.09 63.955C63.09 63.607 63.09 63.259 63.09 62.911C63.09 62.605 63.09 62.314 63.09 62.038C63.096 61.756 63.099 61.51 63.099 61.3C63.105 61.09 63.111 60.94 63.117 60.85C63.135 60.67 63.225 60.58 63.387 60.58C63.507 60.58 63.588 60.613 63.63 60.679C63.678 60.739 63.696 60.808 63.684 60.886C63.684 60.94 63.681 61.054 63.675 61.228C63.675 61.396 63.672 61.588 63.666 61.804C63.66 62.02 63.654 62.224 63.648 62.416C63.648 62.608 63.648 62.755 63.648 62.857H67.518C67.518 62.755 67.515 62.605 67.509 62.407C67.509 62.209 67.506 62.005 67.5 61.795C67.494 61.579 67.488 61.387 67.482 61.219C67.482 61.045 67.482 60.934 67.482 60.886C67.476 60.784 67.506 60.709 67.572 60.661C67.638 60.607 67.707 60.58 67.779 60.58C67.851 60.58 67.914 60.604 67.968 60.652C68.022 60.7 68.049 60.766 68.049 60.85C68.067 60.976 68.079 61.159 68.085 61.399C68.097 61.639 68.103 61.912 68.103 62.218C68.109 62.518 68.112 62.827 68.112 63.145C68.112 63.463 68.109 63.775 68.103 64.081C68.103 64.381 68.097 64.651 68.085 64.891C68.079 65.125 68.067 65.308 68.049 65.44C68.049 65.512 68.022 65.575 67.968 65.629C67.914 65.689 67.848 65.719 67.77 65.719Z" fill="black"/>
<path d="M72.738 66.223C72.678 66.169 72.648 66.103 72.648 66.025C72.648 65.947 72.675 65.878 72.729 65.818C72.867 65.674 73.029 65.488 73.215 65.26C73.401 65.038 73.587 64.813 73.773 64.585C73.965 64.351 74.127 64.15 74.259 63.982C74.187 63.904 74.076 63.772 73.926 63.586C73.776 63.4 73.608 63.19 73.422 62.956C73.236 62.716 73.053 62.479 72.873 62.245C72.699 62.011 72.546 61.807 72.414 61.633C72.288 61.453 72.21 61.33 72.18 61.264C72.156 61.222 72.144 61.177 72.144 61.129C72.144 61.027 72.192 60.943 72.288 60.877C72.33 60.853 72.375 60.841 72.423 60.841C72.519 60.841 72.603 60.886 72.675 60.976C72.723 61.06 72.804 61.186 72.918 61.354C73.038 61.522 73.176 61.711 73.332 61.921C73.494 62.125 73.656 62.332 73.818 62.542C73.986 62.752 74.142 62.944 74.286 63.118C74.43 63.292 74.541 63.424 74.619 63.514C74.823 63.238 75 62.998 75.15 62.794C75.3 62.59 75.435 62.401 75.555 62.227C75.675 62.047 75.792 61.861 75.906 61.669C76.02 61.471 76.143 61.246 76.275 60.994C76.305 60.934 76.344 60.892 76.392 60.868C76.44 60.844 76.488 60.832 76.536 60.832C76.584 60.832 76.626 60.841 76.662 60.859C76.77 60.919 76.824 61.003 76.824 61.111C76.824 61.153 76.815 61.198 76.797 61.246C76.671 61.498 76.497 61.795 76.275 62.137C76.059 62.479 75.813 62.842 75.537 63.226C75.267 63.604 74.988 63.979 74.7 64.351C74.412 64.723 74.133 65.071 73.863 65.395C73.593 65.719 73.353 65.992 73.143 66.214C73.077 66.274 73.005 66.304 72.927 66.304C72.855 66.304 72.792 66.277 72.738 66.223Z" fill="black"/>
</svg>
