<svg width="128" height="128" viewBox="0 0 128 128" fill="none" xmlns="http://www.w3.org/2000/svg">
<rect width="128" height="128" fill="white"/>
<path d="M48.127 62.16C47.1403 62.16 46.1537 62.12 45.167 62.04C44.1803 61.96 43.1803 61.8667 42.167 61.76C41.767 61.7067 41.4737 61.5333 41.287 61.24C41.127 60.9467 41.0603 60.68 41.087 60.44C41.087 60.1467 41.207 59.88 41.447 59.64C41.7137 59.4267 42.0337 59.3467 42.407 59.4C43.3403 59.5067 44.287 59.6 45.247 59.68C46.2337 59.76 47.1937 59.8 48.127 59.8C49.327 59.8 50.5803 59.7067 51.887 59.52C53.1937 59.3333 54.3937 59.0533 55.487 58.68C56.607 58.28 57.5137 57.76 58.207 57.12C58.9003 56.48 59.247 55.72 59.247 54.84C59.247 53.5333 58.527 52.52 57.087 51.8C55.647 51.08 53.607 50.72 50.967 50.72C50.567 50.7467 50.247 50.64 50.007 50.4C49.767 50.1333 49.647 49.8667 49.647 49.6C49.647 49.0667 49.7937 48.7333 50.087 48.6C50.3803 48.44 50.767 48.3467 51.247 48.32C52.9537 48.2133 54.527 47.8533 55.967 47.24C57.4337 46.6 58.607 45.7733 59.487 44.76C60.3937 43.72 60.847 42.5733 60.847 41.32C60.847 40.0133 60.4737 38.9067 59.727 38C59.007 37.0667 58.0337 36.3067 56.807 35.72C55.5803 35.1333 54.2203 34.7067 52.727 34.44C51.2337 34.1733 49.7403 34.04 48.247 34.04C46.9137 34.04 45.447 34.1333 43.847 34.32C42.2737 34.48 40.567 34.7867 38.727 35.24L39.647 60.68C39.647 61.0267 39.5403 61.32 39.327 61.56C39.1137 61.8 38.8203 61.92 38.447 61.92C37.647 61.92 37.247 61.5333 37.247 60.76L36.247 33C36.247 32.5733 36.3537 32.2667 36.567 32.08C36.807 31.8933 37.0737 31.7867 37.367 31.76C37.687 31.76 37.967 31.8533 38.207 32.04C38.4737 32.2 38.6203 32.4533 38.647 32.8C42.167 32 45.3137 31.6 48.087 31.6C49.9803 31.6 51.8203 31.8 53.607 32.2C55.4203 32.5733 57.047 33.16 58.487 33.96C59.927 34.7333 61.0603 35.7333 61.887 36.96C62.7403 38.16 63.167 39.5867 63.167 41.24C63.167 42.8667 62.647 44.4 61.607 45.84C60.567 47.28 59.127 48.4267 57.287 49.28C58.5937 49.8667 59.647 50.64 60.447 51.6C61.247 52.56 61.647 53.64 61.647 54.84C61.647 56.1467 61.247 57.2667 60.447 58.2C59.6737 59.1067 58.6203 59.8533 57.287 60.44C55.9803 61.0267 54.527 61.4533 52.927 61.72C51.327 62.0133 49.727 62.16 48.127 62.16Z" fill="black"/>
<path d="M70.0858 62C69.7391 62 69.4458 61.8933 69.2057 61.68C68.9924 61.4933 68.8857 61.2133 68.8857 60.84L67.9658 33.6C67.9658 32.7733 68.3924 32.36 69.2458 32.36C69.8058 32.36 70.1658 32.64 70.3258 33.2C73.4458 31.9467 76.2458 31.24 78.7257 31.08C79.0191 31.0533 79.3124 31.04 79.6058 31.04C79.9258 31.0133 80.2324 31 80.5258 31C83.4591 31 86.0724 31.5867 88.3658 32.76C90.6858 33.9333 92.4858 35.7067 93.7658 38.08C94.7524 40 95.2458 41.96 95.2458 43.96C95.2458 45.4 94.9791 46.8 94.4458 48.16C93.9391 49.52 93.1791 50.7733 92.1658 51.92C90.6991 53.6 88.8724 54.8 86.6858 55.52C84.4991 56.24 82.1791 56.6 79.7257 56.6C78.4724 56.6 77.2057 56.52 75.9258 56.36C74.6724 56.1733 73.4191 55.9333 72.1658 55.64C71.8458 55.5867 71.6058 55.4533 71.4458 55.24C71.3124 55 71.2458 54.7733 71.2458 54.56C71.2458 54.4533 71.2724 54.32 71.3258 54.16C71.4858 53.5733 71.8991 53.28 72.5658 53.28C72.6724 53.28 72.7658 53.2933 72.8458 53.32C72.9258 53.32 73.0191 53.3333 73.1258 53.36C74.2991 53.68 75.4991 53.9333 76.7257 54.12C77.9524 54.28 79.1391 54.36 80.2858 54.36C82.3124 54.36 84.2057 54.0667 85.9658 53.48C87.7257 52.8933 89.2191 51.92 90.4458 50.56C92.1524 48.6133 93.0058 46.4267 93.0058 44C93.0058 42.1867 92.5257 40.4667 91.5658 38.84C90.4191 36.9467 88.8858 35.5467 86.9658 34.64C85.0724 33.7333 82.9791 33.28 80.6858 33.28C80.2591 33.28 79.8058 33.3067 79.3258 33.36C78.8724 33.3867 78.4191 33.4267 77.9658 33.48C75.6991 33.7733 73.1924 34.5333 70.4458 35.76L71.2858 60.76C71.2858 61.1867 71.1524 61.4933 70.8857 61.68C70.6457 61.8933 70.3791 62 70.0858 62Z" fill="black"/>
<path d="M33.065 83.899C32.507 83.899 32.021 83.782 31.607 83.548C31.199 83.314 30.881 82.987 30.653 82.567C30.431 82.141 30.32 81.64 30.32 81.064C30.32 80.488 30.428 79.987 30.644 79.561C30.86 79.135 31.172 78.805 31.58 78.571C31.988 78.337 32.483 78.22 33.065 78.22C33.665 78.22 34.169 78.337 34.577 78.571C34.985 78.805 35.294 79.135 35.504 79.561C35.714 79.981 35.819 80.482 35.819 81.064C35.819 81.988 35.582 82.69 35.108 83.17C34.64 83.656 33.959 83.899 33.065 83.899ZM33.065 83.332C33.815 83.332 34.367 83.143 34.721 82.765C35.075 82.387 35.252 81.82 35.252 81.064C35.252 80.35 35.069 79.792 34.703 79.39C34.337 78.988 33.791 78.787 33.065 78.787C32.339 78.787 31.793 78.994 31.427 79.408C31.061 79.816 30.878 80.368 30.878 81.064C30.878 81.76 31.067 82.312 31.445 82.72C31.829 83.128 32.369 83.332 33.065 83.332Z" fill="black"/>
<path d="M42.191 83.908C41.663 83.908 41.195 83.785 40.787 83.539C40.385 83.293 40.07 82.954 39.842 82.522C39.614 82.084 39.5 81.589 39.5 81.037C39.5 80.461 39.602 79.933 39.806 79.453C40.016 78.973 40.301 78.55 40.661 78.184C41.021 77.818 41.429 77.521 41.885 77.293C42.341 77.059 42.815 76.9 43.307 76.816C43.391 76.798 43.463 76.813 43.523 76.861C43.583 76.909 43.622 76.975 43.64 77.059C43.652 77.137 43.64 77.209 43.604 77.275C43.568 77.335 43.502 77.371 43.406 77.383C42.986 77.455 42.575 77.596 42.173 77.806C41.777 78.01 41.423 78.265 41.111 78.571C40.805 78.871 40.568 79.198 40.4 79.552C40.67 79.402 40.955 79.288 41.255 79.21C41.561 79.126 41.864 79.084 42.164 79.084C42.656 79.084 43.094 79.186 43.478 79.39C43.868 79.588 44.174 79.861 44.396 80.209C44.618 80.557 44.729 80.959 44.729 81.415C44.729 81.895 44.618 82.324 44.396 82.702C44.18 83.08 43.88 83.374 43.496 83.584C43.112 83.8 42.677 83.908 42.191 83.908ZM42.092 83.305C42.482 83.329 42.833 83.266 43.145 83.116C43.457 82.972 43.703 82.756 43.883 82.468C44.063 82.174 44.153 81.826 44.153 81.424C44.153 81.052 44.06 80.734 43.874 80.47C43.694 80.206 43.451 80.005 43.145 79.867C42.845 79.723 42.512 79.651 42.146 79.651C41.78 79.651 41.423 79.72 41.075 79.858C40.727 79.996 40.409 80.188 40.121 80.434C40.109 80.53 40.097 80.626 40.085 80.722C40.079 80.812 40.076 80.905 40.076 81.001C40.076 81.415 40.151 81.793 40.301 82.135C40.457 82.471 40.685 82.744 40.985 82.954C41.285 83.158 41.654 83.275 42.092 83.305Z" fill="black"/>
<path d="M49.238 84.223C49.178 84.169 49.148 84.103 49.148 84.025C49.148 83.947 49.175 83.878 49.229 83.818C49.367 83.674 49.529 83.488 49.715 83.26C49.901 83.038 50.087 82.813 50.273 82.585C50.465 82.351 50.627 82.15 50.759 81.982C50.687 81.904 50.576 81.772 50.426 81.586C50.276 81.4 50.108 81.19 49.922 80.956C49.736 80.716 49.553 80.479 49.373 80.245C49.199 80.011 49.046 79.807 48.914 79.633C48.788 79.453 48.71 79.33 48.68 79.264C48.656 79.222 48.644 79.177 48.644 79.129C48.644 79.027 48.692 78.943 48.788 78.877C48.83 78.853 48.875 78.841 48.923 78.841C49.019 78.841 49.103 78.886 49.175 78.976C49.223 79.06 49.304 79.186 49.418 79.354C49.538 79.522 49.676 79.711 49.832 79.921C49.994 80.125 50.156 80.332 50.318 80.542C50.486 80.752 50.642 80.944 50.786 81.118C50.93 81.292 51.041 81.424 51.119 81.514C51.323 81.238 51.5 80.998 51.65 80.794C51.8 80.59 51.935 80.401 52.055 80.227C52.175 80.047 52.292 79.861 52.406 79.669C52.52 79.471 52.643 79.246 52.775 78.994C52.805 78.934 52.844 78.892 52.892 78.868C52.94 78.844 52.988 78.832 53.036 78.832C53.084 78.832 53.126 78.841 53.162 78.859C53.27 78.919 53.324 79.003 53.324 79.111C53.324 79.153 53.315 79.198 53.297 79.246C53.171 79.498 52.997 79.795 52.775 80.137C52.559 80.479 52.313 80.842 52.037 81.226C51.767 81.604 51.488 81.979 51.2 82.351C50.912 82.723 50.633 83.071 50.363 83.395C50.093 83.719 49.853 83.992 49.643 84.214C49.577 84.274 49.505 84.304 49.427 84.304C49.355 84.304 49.292 84.277 49.238 84.223Z" fill="black"/>
<path d="M61.784 84.025C61.598 84.025 61.505 83.92 61.505 83.71C61.505 83.626 61.508 83.506 61.514 83.35C61.52 83.194 61.523 83.032 61.523 82.864C61.247 82.942 60.965 83.005 60.677 83.053C60.389 83.101 60.11 83.125 59.84 83.125C59.276 83.125 58.817 83.008 58.463 82.774C58.115 82.534 57.86 82.204 57.698 81.784C57.536 81.358 57.455 80.863 57.455 80.299C57.455 79.909 57.482 79.507 57.536 79.093C57.548 79.003 57.59 78.937 57.662 78.895C57.734 78.853 57.8 78.838 57.86 78.85C57.938 78.856 58.001 78.892 58.049 78.958C58.097 79.018 58.115 79.09 58.103 79.174C58.079 79.372 58.061 79.561 58.049 79.741C58.043 79.921 58.04 80.095 58.04 80.263C58.04 80.749 58.094 81.163 58.202 81.505C58.316 81.847 58.505 82.108 58.769 82.288C59.039 82.468 59.405 82.558 59.867 82.558C60.131 82.558 60.404 82.531 60.686 82.477C60.968 82.417 61.247 82.345 61.523 82.261C61.523 81.691 61.52 81.229 61.514 80.875C61.514 80.515 61.514 80.233 61.514 80.029C61.514 79.825 61.514 79.672 61.514 79.57C61.514 79.462 61.514 79.381 61.514 79.327C61.514 79.273 61.511 79.213 61.505 79.147C61.505 79.063 61.529 78.994 61.577 78.94C61.625 78.88 61.694 78.85 61.784 78.85C61.868 78.838 61.937 78.859 61.991 78.913C62.045 78.967 62.075 79.036 62.081 79.12V83.728C62.081 83.824 62.048 83.896 61.982 83.944C61.916 83.998 61.85 84.025 61.784 84.025Z" fill="black"/>
<path d="M69.047 83.908C68.483 83.908 67.988 83.788 67.562 83.548C67.142 83.308 66.815 82.975 66.581 82.549C66.347 82.117 66.23 81.616 66.23 81.046C66.23 80.506 66.344 80.023 66.572 79.597C66.806 79.171 67.13 78.838 67.544 78.598C67.964 78.352 68.456 78.229 69.02 78.229C69.524 78.229 69.977 78.352 70.379 78.598C70.781 78.844 71.102 79.18 71.342 79.606C71.582 80.026 71.711 80.506 71.729 81.046C71.729 81.202 71.645 81.301 71.477 81.343C71.345 81.361 71.15 81.376 70.892 81.388C70.634 81.4 70.337 81.412 70.001 81.424C69.665 81.43 69.311 81.436 68.939 81.442C68.567 81.442 68.198 81.442 67.832 81.442C67.466 81.442 67.127 81.442 66.815 81.442C66.857 81.832 66.977 82.171 67.175 82.459C67.379 82.747 67.64 82.966 67.958 83.116C68.282 83.272 68.642 83.35 69.038 83.35C69.392 83.35 69.74 83.29 70.082 83.17C70.43 83.05 70.724 82.885 70.964 82.675C71.024 82.633 71.09 82.612 71.162 82.612C71.246 82.612 71.315 82.642 71.369 82.702C71.405 82.756 71.423 82.816 71.423 82.882C71.423 82.972 71.393 83.041 71.333 83.089C71.003 83.365 70.64 83.569 70.244 83.701C69.848 83.839 69.449 83.908 69.047 83.908ZM66.797 80.875C67.187 80.875 67.598 80.875 68.03 80.875C68.462 80.869 68.882 80.863 69.29 80.857C69.698 80.845 70.064 80.836 70.388 80.83C70.718 80.818 70.97 80.809 71.144 80.803C71.096 80.383 70.97 80.023 70.766 79.723C70.562 79.423 70.301 79.192 69.983 79.03C69.665 78.868 69.305 78.787 68.903 78.787C68.513 78.793 68.165 78.886 67.859 79.066C67.553 79.246 67.307 79.492 67.121 79.804C66.935 80.11 66.827 80.467 66.797 80.875Z" fill="black"/>
<path d="M80.27 83.719C80.192 83.713 80.123 83.68 80.063 83.62C80.003 83.566 79.976 83.497 79.982 83.413C79.982 83.359 79.982 83.248 79.982 83.08C79.988 82.912 79.994 82.723 80 82.513C80.006 82.297 80.009 82.09 80.009 81.892C80.015 81.694 80.018 81.541 80.018 81.433H76.157C76.157 81.667 76.157 81.88 76.157 82.072C76.163 82.264 76.169 82.465 76.175 82.675C76.181 82.879 76.187 83.125 76.193 83.413C76.205 83.491 76.181 83.56 76.121 83.62C76.067 83.68 75.998 83.71 75.914 83.71C75.818 83.722 75.746 83.695 75.698 83.629C75.656 83.569 75.629 83.506 75.617 83.44C75.611 83.32 75.605 83.128 75.599 82.864C75.599 82.6 75.596 82.297 75.59 81.955C75.59 81.607 75.59 81.259 75.59 80.911C75.59 80.605 75.59 80.314 75.59 80.038C75.596 79.756 75.599 79.51 75.599 79.3C75.605 79.09 75.611 78.94 75.617 78.85C75.635 78.67 75.725 78.58 75.887 78.58C76.007 78.58 76.088 78.613 76.13 78.679C76.178 78.739 76.196 78.808 76.184 78.886C76.184 78.94 76.181 79.054 76.175 79.228C76.175 79.396 76.172 79.588 76.166 79.804C76.16 80.02 76.154 80.224 76.148 80.416C76.148 80.608 76.148 80.755 76.148 80.857H80.018C80.018 80.755 80.015 80.605 80.009 80.407C80.009 80.209 80.006 80.005 80 79.795C79.994 79.579 79.988 79.387 79.982 79.219C79.982 79.045 79.982 78.934 79.982 78.886C79.976 78.784 80.006 78.709 80.072 78.661C80.138 78.607 80.207 78.58 80.279 78.58C80.351 78.58 80.414 78.604 80.468 78.652C80.522 78.7 80.549 78.766 80.549 78.85C80.567 78.976 80.579 79.159 80.585 79.399C80.597 79.639 80.603 79.912 80.603 80.218C80.609 80.518 80.612 80.827 80.612 81.145C80.612 81.463 80.609 81.775 80.603 82.081C80.603 82.381 80.597 82.651 80.585 82.891C80.579 83.125 80.567 83.308 80.549 83.44C80.549 83.512 80.522 83.575 80.468 83.629C80.414 83.689 80.348 83.719 80.27 83.719Z" fill="black"/>
<path d="M85.031 83.764C84.917 83.746 84.851 83.671 84.833 83.539C84.809 83.383 84.788 83.176 84.77 82.918C84.752 82.66 84.737 82.372 84.725 82.054C84.719 81.736 84.713 81.412 84.707 81.082C84.701 80.746 84.698 80.425 84.698 80.119C84.698 79.807 84.698 79.534 84.698 79.3C84.71 79.198 84.746 79.123 84.806 79.075C84.872 79.027 84.938 79.009 85.004 79.021C85.076 79.021 85.136 79.051 85.184 79.111C85.238 79.171 85.265 79.243 85.265 79.327C85.259 79.441 85.253 79.558 85.247 79.678C85.247 79.792 85.247 79.912 85.247 80.038C85.247 80.44 85.259 80.869 85.283 81.325C85.307 81.781 85.331 82.27 85.355 82.792C85.943 82.114 86.528 81.472 87.11 80.866C87.692 80.26 88.283 79.693 88.883 79.165C88.949 79.111 89.015 79.084 89.081 79.084C89.147 79.084 89.207 79.108 89.261 79.156C89.321 79.204 89.357 79.261 89.369 79.327C89.399 79.549 89.423 79.771 89.441 79.993C89.465 80.215 89.48 80.473 89.486 80.767C89.498 81.061 89.504 81.421 89.504 81.847C89.51 82.273 89.513 82.801 89.513 83.431C89.513 83.527 89.48 83.596 89.414 83.638C89.348 83.686 89.282 83.71 89.216 83.71C89.12 83.71 89.048 83.677 89 83.611C88.958 83.551 88.937 83.488 88.937 83.422C88.943 83.326 88.946 83.221 88.946 83.107C88.946 82.993 88.946 82.87 88.946 82.738C88.946 82.45 88.943 82.144 88.937 81.82C88.931 81.49 88.922 81.169 88.91 80.857C88.898 80.545 88.883 80.275 88.865 80.047C88.517 80.335 88.202 80.608 87.92 80.866C87.644 81.124 87.374 81.391 87.11 81.667C86.852 81.943 86.579 82.246 86.291 82.576C86.009 82.9 85.688 83.272 85.328 83.692C85.268 83.752 85.214 83.782 85.166 83.782C85.148 83.782 85.127 83.779 85.103 83.773C85.085 83.773 85.061 83.77 85.031 83.764Z" fill="black"/>
<path d="M96.047 83.908C95.483 83.908 94.988 83.788 94.562 83.548C94.142 83.308 93.815 82.975 93.581 82.549C93.347 82.117 93.23 81.616 93.23 81.046C93.23 80.506 93.344 80.023 93.572 79.597C93.806 79.171 94.13 78.838 94.544 78.598C94.964 78.352 95.456 78.229 96.02 78.229C96.524 78.229 96.977 78.352 97.379 78.598C97.781 78.844 98.102 79.18 98.342 79.606C98.582 80.026 98.711 80.506 98.729 81.046C98.729 81.202 98.645 81.301 98.477 81.343C98.345 81.361 98.15 81.376 97.892 81.388C97.634 81.4 97.337 81.412 97.001 81.424C96.665 81.43 96.311 81.436 95.939 81.442C95.567 81.442 95.198 81.442 94.832 81.442C94.466 81.442 94.127 81.442 93.815 81.442C93.857 81.832 93.977 82.171 94.175 82.459C94.379 82.747 94.64 82.966 94.958 83.116C95.282 83.272 95.642 83.35 96.038 83.35C96.392 83.35 96.74 83.29 97.082 83.17C97.43 83.05 97.724 82.885 97.964 82.675C98.024 82.633 98.09 82.612 98.162 82.612C98.246 82.612 98.315 82.642 98.369 82.702C98.405 82.756 98.423 82.816 98.423 82.882C98.423 82.972 98.393 83.041 98.333 83.089C98.003 83.365 97.64 83.569 97.244 83.701C96.848 83.839 96.449 83.908 96.047 83.908ZM93.797 80.875C94.187 80.875 94.598 80.875 95.03 80.875C95.462 80.869 95.882 80.863 96.29 80.857C96.698 80.845 97.064 80.836 97.388 80.83C97.718 80.818 97.97 80.809 98.144 80.803C98.096 80.383 97.97 80.023 97.766 79.723C97.562 79.423 97.301 79.192 96.983 79.03C96.665 78.868 96.305 78.787 95.903 78.787C95.513 78.793 95.165 78.886 94.859 79.066C94.553 79.246 94.307 79.492 94.121 79.804C93.935 80.11 93.827 80.467 93.797 80.875Z" fill="black"/>
<path d="M28.691 96.908C28.163 96.908 27.695 96.785 27.287 96.539C26.885 96.293 26.57 95.954 26.342 95.522C26.114 95.084 26 94.589 26 94.037C26 93.461 26.102 92.933 26.306 92.453C26.516 91.973 26.801 91.55 27.161 91.184C27.521 90.818 27.929 90.521 28.385 90.293C28.841 90.059 29.315 89.9 29.807 89.816C29.891 89.798 29.963 89.813 30.023 89.861C30.083 89.909 30.122 89.975 30.14 90.059C30.152 90.137 30.14 90.209 30.104 90.275C30.068 90.335 30.002 90.371 29.906 90.383C29.486 90.455 29.075 90.596 28.673 90.806C28.277 91.01 27.923 91.265 27.611 91.571C27.305 91.871 27.068 92.198 26.9 92.552C27.17 92.402 27.455 92.288 27.755 92.21C28.061 92.126 28.364 92.084 28.664 92.084C29.156 92.084 29.594 92.186 29.978 92.39C30.368 92.588 30.674 92.861 30.896 93.209C31.118 93.557 31.229 93.959 31.229 94.415C31.229 94.895 31.118 95.324 30.896 95.702C30.68 96.08 30.38 96.374 29.996 96.584C29.612 96.8 29.177 96.908 28.691 96.908ZM28.592 96.305C28.982 96.329 29.333 96.266 29.645 96.116C29.957 95.972 30.203 95.756 30.383 95.468C30.563 95.174 30.653 94.826 30.653 94.424C30.653 94.052 30.56 93.734 30.374 93.47C30.194 93.206 29.951 93.005 29.645 92.867C29.345 92.723 29.012 92.651 28.646 92.651C28.28 92.651 27.923 92.72 27.575 92.858C27.227 92.996 26.909 93.188 26.621 93.434C26.609 93.53 26.597 93.626 26.585 93.722C26.579 93.812 26.576 93.905 26.576 94.001C26.576 94.415 26.651 94.793 26.801 95.135C26.957 95.471 27.185 95.744 27.485 95.954C27.785 96.158 28.154 96.275 28.592 96.305Z" fill="black"/>
<path d="M39.752 96.683C39.674 96.689 39.608 96.665 39.554 96.611C39.5 96.557 39.473 96.482 39.473 96.386C39.479 96.122 39.482 95.81 39.482 95.45C39.482 95.084 39.482 94.715 39.482 94.343C39.482 93.965 39.482 93.632 39.482 93.344V92.588C39.422 92.582 39.284 92.579 39.068 92.579C38.858 92.573 38.606 92.57 38.312 92.57C38.024 92.564 37.736 92.561 37.448 92.561C37.142 92.561 36.863 92.561 36.611 92.561C36.365 92.561 36.203 92.564 36.125 92.57C36.101 92.966 36.068 93.371 36.026 93.785C35.99 94.193 35.939 94.586 35.873 94.964C35.807 95.336 35.729 95.663 35.639 95.945C35.549 96.221 35.444 96.425 35.324 96.557C35.276 96.623 35.207 96.656 35.117 96.656C35.045 96.656 34.979 96.632 34.919 96.584C34.853 96.53 34.82 96.458 34.82 96.368C34.82 96.302 34.844 96.239 34.892 96.179C34.976 96.089 35.051 95.93 35.117 95.702C35.183 95.474 35.243 95.21 35.297 94.91C35.351 94.604 35.396 94.289 35.432 93.965C35.468 93.641 35.495 93.335 35.513 93.047C35.537 92.753 35.549 92.51 35.549 92.318C35.549 92.246 35.573 92.18 35.621 92.12C35.669 92.06 35.729 92.027 35.801 92.021C35.981 91.997 36.221 91.982 36.521 91.976C36.821 91.964 37.142 91.958 37.484 91.958C37.91 91.958 38.33 91.964 38.744 91.976C39.164 91.988 39.503 92.003 39.761 92.021C39.833 92.027 39.896 92.057 39.95 92.111C40.01 92.159 40.04 92.216 40.04 92.282C40.052 92.342 40.061 92.477 40.067 92.687C40.073 92.897 40.076 93.146 40.076 93.434C40.076 93.722 40.073 94.028 40.067 94.352C40.067 94.67 40.064 94.976 40.058 95.27C40.052 95.558 40.046 95.804 40.04 96.008C40.04 96.212 40.04 96.341 40.04 96.395C40.04 96.491 40.007 96.563 39.941 96.611C39.875 96.659 39.812 96.683 39.752 96.683Z" fill="black"/>
<path d="M46.565 96.899C46.007 96.899 45.521 96.782 45.107 96.548C44.699 96.314 44.381 95.987 44.153 95.567C43.931 95.141 43.82 94.64 43.82 94.064C43.82 93.488 43.928 92.987 44.144 92.561C44.36 92.135 44.672 91.805 45.08 91.571C45.488 91.337 45.983 91.22 46.565 91.22C47.165 91.22 47.669 91.337 48.077 91.571C48.485 91.805 48.794 92.135 49.004 92.561C49.214 92.981 49.319 93.482 49.319 94.064C49.319 94.988 49.082 95.69 48.608 96.17C48.14 96.656 47.459 96.899 46.565 96.899ZM46.565 96.332C47.315 96.332 47.867 96.143 48.221 95.765C48.575 95.387 48.752 94.82 48.752 94.064C48.752 93.35 48.569 92.792 48.203 92.39C47.837 91.988 47.291 91.787 46.565 91.787C45.839 91.787 45.293 91.994 44.927 92.408C44.561 92.816 44.378 93.368 44.378 94.064C44.378 94.76 44.567 95.312 44.945 95.72C45.329 96.128 45.869 96.332 46.565 96.332Z" fill="black"/>
<path d="M53.738 96.719C53.648 96.719 53.582 96.689 53.54 96.629C53.498 96.575 53.471 96.518 53.459 96.458C53.447 96.362 53.438 96.215 53.432 96.017C53.426 95.819 53.42 95.543 53.414 95.189C53.408 94.835 53.405 94.379 53.405 93.821C53.405 93.257 53.405 92.564 53.405 91.742C53.405 91.646 53.438 91.577 53.504 91.535C53.57 91.487 53.636 91.463 53.702 91.463C53.804 91.469 53.876 91.505 53.918 91.571C53.96 91.631 53.981 91.694 53.981 91.76C53.981 91.814 53.978 91.925 53.972 92.093C53.972 92.261 53.972 92.465 53.972 92.705C53.972 92.939 53.969 93.188 53.963 93.452C53.963 93.716 53.963 93.971 53.963 94.217C54.395 94.211 54.812 94.154 55.214 94.046C55.622 93.938 55.985 93.785 56.303 93.587C56.621 93.383 56.867 93.14 57.041 92.858C57.215 92.57 57.29 92.249 57.266 91.895C57.266 91.715 57.359 91.616 57.545 91.598C57.725 91.598 57.824 91.691 57.842 91.877C57.854 92.399 57.725 92.852 57.455 93.236C57.185 93.62 56.834 93.938 56.402 94.19C56.792 94.598 57.125 94.976 57.401 95.324C57.683 95.666 57.863 95.951 57.941 96.179C57.959 96.215 57.968 96.254 57.968 96.296C57.968 96.368 57.941 96.431 57.887 96.485C57.833 96.545 57.758 96.575 57.662 96.575C57.542 96.575 57.458 96.515 57.41 96.395C57.332 96.215 57.2 96.008 57.014 95.774C56.834 95.534 56.639 95.297 56.429 95.063C56.219 94.823 56.027 94.619 55.853 94.451C55.757 94.493 55.628 94.535 55.466 94.577C55.304 94.619 55.127 94.658 54.935 94.694C54.749 94.724 54.569 94.748 54.395 94.766C54.227 94.784 54.086 94.793 53.972 94.793C53.984 95.225 53.99 95.567 53.99 95.819C53.996 96.065 54.008 96.26 54.026 96.404C54.038 96.494 54.017 96.569 53.963 96.629C53.915 96.689 53.84 96.719 53.738 96.719Z" fill="black"/>
<path d="M66.284 97.025C66.098 97.025 66.005 96.92 66.005 96.71C66.005 96.626 66.008 96.506 66.014 96.35C66.02 96.194 66.023 96.032 66.023 95.864C65.747 95.942 65.465 96.005 65.177 96.053C64.889 96.101 64.61 96.125 64.34 96.125C63.776 96.125 63.317 96.008 62.963 95.774C62.615 95.534 62.36 95.204 62.198 94.784C62.036 94.358 61.955 93.863 61.955 93.299C61.955 92.909 61.982 92.507 62.036 92.093C62.048 92.003 62.09 91.937 62.162 91.895C62.234 91.853 62.3 91.838 62.36 91.85C62.438 91.856 62.501 91.892 62.549 91.958C62.597 92.018 62.615 92.09 62.603 92.174C62.579 92.372 62.561 92.561 62.549 92.741C62.543 92.921 62.54 93.095 62.54 93.263C62.54 93.749 62.594 94.163 62.702 94.505C62.816 94.847 63.005 95.108 63.269 95.288C63.539 95.468 63.905 95.558 64.367 95.558C64.631 95.558 64.904 95.531 65.186 95.477C65.468 95.417 65.747 95.345 66.023 95.261C66.023 94.691 66.02 94.229 66.014 93.875C66.014 93.515 66.014 93.233 66.014 93.029C66.014 92.825 66.014 92.672 66.014 92.57C66.014 92.462 66.014 92.381 66.014 92.327C66.014 92.273 66.011 92.213 66.005 92.147C66.005 92.063 66.029 91.994 66.077 91.94C66.125 91.88 66.194 91.85 66.284 91.85C66.368 91.838 66.437 91.859 66.491 91.913C66.545 91.967 66.575 92.036 66.581 92.12V96.728C66.581 96.824 66.548 96.896 66.482 96.944C66.416 96.998 66.35 97.025 66.284 97.025Z" fill="black"/>
<path d="M73.547 96.908C72.983 96.908 72.488 96.788 72.062 96.548C71.642 96.308 71.315 95.975 71.081 95.549C70.847 95.117 70.73 94.616 70.73 94.046C70.73 93.506 70.844 93.023 71.072 92.597C71.306 92.171 71.63 91.838 72.044 91.598C72.464 91.352 72.956 91.229 73.52 91.229C74.024 91.229 74.477 91.352 74.879 91.598C75.281 91.844 75.602 92.18 75.842 92.606C76.082 93.026 76.211 93.506 76.229 94.046C76.229 94.202 76.145 94.301 75.977 94.343C75.845 94.361 75.65 94.376 75.392 94.388C75.134 94.4 74.837 94.412 74.501 94.424C74.165 94.43 73.811 94.436 73.439 94.442C73.067 94.442 72.698 94.442 72.332 94.442C71.966 94.442 71.627 94.442 71.315 94.442C71.357 94.832 71.477 95.171 71.675 95.459C71.879 95.747 72.14 95.966 72.458 96.116C72.782 96.272 73.142 96.35 73.538 96.35C73.892 96.35 74.24 96.29 74.582 96.17C74.93 96.05 75.224 95.885 75.464 95.675C75.524 95.633 75.59 95.612 75.662 95.612C75.746 95.612 75.815 95.642 75.869 95.702C75.905 95.756 75.923 95.816 75.923 95.882C75.923 95.972 75.893 96.041 75.833 96.089C75.503 96.365 75.14 96.569 74.744 96.701C74.348 96.839 73.949 96.908 73.547 96.908ZM71.297 93.875C71.687 93.875 72.098 93.875 72.53 93.875C72.962 93.869 73.382 93.863 73.79 93.857C74.198 93.845 74.564 93.836 74.888 93.83C75.218 93.818 75.47 93.809 75.644 93.803C75.596 93.383 75.47 93.023 75.266 92.723C75.062 92.423 74.801 92.192 74.483 92.03C74.165 91.868 73.805 91.787 73.403 91.787C73.013 91.793 72.665 91.886 72.359 92.066C72.053 92.246 71.807 92.492 71.621 92.804C71.435 93.11 71.327 93.467 71.297 93.875Z" fill="black"/>
<path d="M82.646 92.147C82.376 92.147 82.136 92.075 81.926 91.931C81.722 91.787 81.587 91.604 81.521 91.382C81.515 91.364 81.509 91.346 81.503 91.328C81.503 91.31 81.503 91.292 81.503 91.274C81.503 91.196 81.53 91.133 81.584 91.085C81.644 91.037 81.719 91.013 81.809 91.013C81.875 91.013 81.932 91.037 81.98 91.085C82.034 91.127 82.064 91.175 82.07 91.229C82.106 91.355 82.184 91.445 82.304 91.499C82.43 91.547 82.55 91.571 82.664 91.571C82.796 91.571 82.919 91.544 83.033 91.49C83.153 91.436 83.231 91.346 83.267 91.22C83.315 91.082 83.402 91.013 83.528 91.013C83.546 91.013 83.561 91.016 83.573 91.022C83.591 91.022 83.609 91.025 83.627 91.031C83.699 91.055 83.75 91.094 83.78 91.148C83.81 91.202 83.825 91.256 83.825 91.31C83.825 91.346 83.822 91.373 83.816 91.391C83.75 91.619 83.609 91.802 83.393 91.94C83.183 92.078 82.934 92.147 82.646 92.147ZM80.675 96.773C80.597 96.773 80.528 96.749 80.468 96.701C80.408 96.659 80.375 96.602 80.369 96.53C80.351 96.41 80.333 96.233 80.315 95.999C80.297 95.759 80.282 95.489 80.27 95.189C80.258 94.889 80.249 94.583 80.243 94.271C80.237 93.959 80.234 93.674 80.234 93.416C80.234 93.248 80.234 93.098 80.234 92.966C80.24 92.834 80.246 92.726 80.252 92.642C80.264 92.552 80.297 92.486 80.351 92.444C80.405 92.396 80.462 92.372 80.522 92.372C80.612 92.372 80.684 92.399 80.738 92.453C80.798 92.507 80.828 92.579 80.828 92.669C80.822 92.723 80.819 92.792 80.819 92.876C80.819 92.96 80.819 93.056 80.819 93.164C80.819 93.362 80.819 93.584 80.819 93.83C80.825 94.076 80.831 94.325 80.837 94.577C80.843 94.823 80.849 95.054 80.855 95.27C80.867 95.48 80.876 95.648 80.882 95.774C81.116 95.54 81.353 95.312 81.593 95.09C81.833 94.862 82.094 94.625 82.376 94.379C82.658 94.133 82.979 93.86 83.339 93.56C83.705 93.254 84.131 92.906 84.617 92.516C84.647 92.492 84.68 92.474 84.716 92.462C84.752 92.444 84.791 92.435 84.833 92.435C84.887 92.435 84.941 92.456 84.995 92.498C85.055 92.54 85.091 92.597 85.103 92.669C85.127 92.819 85.148 92.993 85.166 93.191C85.184 93.383 85.196 93.62 85.202 93.902C85.214 94.184 85.22 94.532 85.22 94.946C85.226 95.354 85.229 95.846 85.229 96.422C85.223 96.518 85.187 96.587 85.121 96.629C85.061 96.677 84.998 96.701 84.932 96.701C84.746 96.701 84.653 96.602 84.653 96.404C84.659 96.176 84.662 95.963 84.662 95.765C84.668 95.561 84.671 95.366 84.671 95.18C84.671 94.856 84.665 94.544 84.653 94.244C84.647 93.944 84.629 93.632 84.599 93.308C84.185 93.656 83.807 93.971 83.465 94.253C83.123 94.535 82.805 94.805 82.511 95.063C82.223 95.315 81.944 95.573 81.674 95.837C81.41 96.095 81.14 96.377 80.864 96.683C80.81 96.743 80.747 96.773 80.675 96.773Z" fill="black"/>
<path d="M93.77 96.719C93.692 96.713 93.623 96.68 93.563 96.62C93.503 96.566 93.476 96.497 93.482 96.413C93.482 96.359 93.482 96.248 93.482 96.08C93.488 95.912 93.494 95.723 93.5 95.513C93.506 95.297 93.509 95.09 93.509 94.892C93.515 94.694 93.518 94.541 93.518 94.433H89.657C89.657 94.667 89.657 94.88 89.657 95.072C89.663 95.264 89.669 95.465 89.675 95.675C89.681 95.879 89.687 96.125 89.693 96.413C89.705 96.491 89.681 96.56 89.621 96.62C89.567 96.68 89.498 96.71 89.414 96.71C89.318 96.722 89.246 96.695 89.198 96.629C89.156 96.569 89.129 96.506 89.117 96.44C89.111 96.32 89.105 96.128 89.099 95.864C89.099 95.6 89.096 95.297 89.09 94.955C89.09 94.607 89.09 94.259 89.09 93.911C89.09 93.605 89.09 93.314 89.09 93.038C89.096 92.756 89.099 92.51 89.099 92.3C89.105 92.09 89.111 91.94 89.117 91.85C89.135 91.67 89.225 91.58 89.387 91.58C89.507 91.58 89.588 91.613 89.63 91.679C89.678 91.739 89.696 91.808 89.684 91.886C89.684 91.94 89.681 92.054 89.675 92.228C89.675 92.396 89.672 92.588 89.666 92.804C89.66 93.02 89.654 93.224 89.648 93.416C89.648 93.608 89.648 93.755 89.648 93.857H93.518C93.518 93.755 93.515 93.605 93.509 93.407C93.509 93.209 93.506 93.005 93.5 92.795C93.494 92.579 93.488 92.387 93.482 92.219C93.482 92.045 93.482 91.934 93.482 91.886C93.476 91.784 93.506 91.709 93.572 91.661C93.638 91.607 93.707 91.58 93.779 91.58C93.851 91.58 93.914 91.604 93.968 91.652C94.022 91.7 94.049 91.766 94.049 91.85C94.067 91.976 94.079 92.159 94.085 92.399C94.097 92.639 94.103 92.912 94.103 93.218C94.109 93.518 94.112 93.827 94.112 94.145C94.112 94.463 94.109 94.775 94.103 95.081C94.103 95.381 94.097 95.651 94.085 95.891C94.079 96.125 94.067 96.308 94.049 96.44C94.049 96.512 94.022 96.575 93.968 96.629C93.914 96.689 93.848 96.719 93.77 96.719Z" fill="black"/>
<path d="M98.738 97.223C98.678 97.169 98.648 97.103 98.648 97.025C98.648 96.947 98.675 96.878 98.729 96.818C98.867 96.674 99.029 96.488 99.215 96.26C99.401 96.038 99.587 95.813 99.773 95.585C99.965 95.351 100.127 95.15 100.259 94.982C100.187 94.904 100.076 94.772 99.926 94.586C99.776 94.4 99.608 94.19 99.422 93.956C99.236 93.716 99.053 93.479 98.873 93.245C98.699 93.011 98.546 92.807 98.414 92.633C98.288 92.453 98.21 92.33 98.18 92.264C98.156 92.222 98.144 92.177 98.144 92.129C98.144 92.027 98.192 91.943 98.288 91.877C98.33 91.853 98.375 91.841 98.423 91.841C98.519 91.841 98.603 91.886 98.675 91.976C98.723 92.06 98.804 92.186 98.918 92.354C99.038 92.522 99.176 92.711 99.332 92.921C99.494 93.125 99.656 93.332 99.818 93.542C99.986 93.752 100.142 93.944 100.286 94.118C100.43 94.292 100.541 94.424 100.619 94.514C100.823 94.238 101 93.998 101.15 93.794C101.3 93.59 101.435 93.401 101.555 93.227C101.675 93.047 101.792 92.861 101.906 92.669C102.02 92.471 102.143 92.246 102.275 91.994C102.305 91.934 102.344 91.892 102.392 91.868C102.44 91.844 102.488 91.832 102.536 91.832C102.584 91.832 102.626 91.841 102.662 91.859C102.77 91.919 102.824 92.003 102.824 92.111C102.824 92.153 102.815 92.198 102.797 92.246C102.671 92.498 102.497 92.795 102.275 93.137C102.059 93.479 101.813 93.842 101.537 94.226C101.267 94.604 100.988 94.979 100.7 95.351C100.412 95.723 100.133 96.071 99.863 96.395C99.593 96.719 99.353 96.992 99.143 97.214C99.077 97.274 99.005 97.304 98.927 97.304C98.855 97.304 98.792 97.277 98.738 97.223Z" fill="black"/>
</svg>
